# Blender v2.79 (sub 0) OBJ File: 'LProck2.obj'
# www.blender.org
mtllib IceShard.mtl
o Cube_Cube.001
v -0.851963 0.843409 0.147105
v -0.519325 3.200582 2.837432
v -0.460943 2.752981 1.948560
v -0.638137 0.829404 -0.022496
v 0.311623 0.660074 -0.339336
v 0.157691 2.566177 1.796552
v 0.483543 1.918303 0.994470
v 0.584182 0.904136 -0.337894
v 0.942531 1.422714 0.930145
v 0.899326 2.233284 1.445645
v 0.086868 3.589578 3.433801
v 0.202714 3.581805 3.464260
v 0.469045 2.071919 2.314886
v 0.006359 4.219800 4.154329
v -0.652271 2.011369 2.097967
v -0.696696 1.430351 1.488846
v 0.278793 -0.999935 0.030142
v 1.462353 -0.989949 0.070630
v 1.371323 -0.999894 1.030096
v 0.278742 -1.000000 1.571880
v -0.036254 3.679152 3.327961
v 0.279520 -0.321133 1.089458
v -1.004128 -0.801334 1.021404
v -1.000000 -1.000000 1.641301
v 0.281122 -0.063739 1.353100
v -0.826143 -0.357610 1.020622
v 0.355278 0.480637 1.222059
v -0.816685 0.392889 0.706747
v 1.086549 -0.329479 0.438541
v 1.110499 -0.810281 1.165223
v 1.062788 0.026177 0.030881
v 1.028216 -0.328277 1.089752
v 1.156110 0.390183 0.298128
v 0.855064 -0.151763 1.039233
v 0.278742 -1.000000 -1.370099
v 0.278742 -0.571386 -1.000000
v 1.000000 -0.282643 -1.000000
v 1.000000 -1.000000 -1.394117
v 0.278742 -0.059087 -1.000000
v 0.896188 0.138979 -0.797584
v 0.278742 0.340913 -1.000000
v 0.742487 0.536200 -0.713716
v -1.681875 -0.997598 0.039614
v -1.086549 -0.329479 0.438541
v -1.000000 -0.386108 -1.000000
v -1.466458 -1.000000 -1.265424
v -1.201946 0.147317 0.596544
v -0.731920 -0.058812 -0.748875
v -0.886721 0.496435 -0.101831
v -0.628689 0.238970 -0.637074
vt 0.984509 0.620212
vt 0.962942 0.200660
vt 0.998833 0.310187
vt 0.998833 0.632545
vt 0.468909 0.477511
vt 0.442659 0.183703
vt 0.483664 0.285925
vt 0.500290 0.449942
vt 0.106332 0.486862
vt 0.107999 0.375099
vt 0.230814 0.107900
vt 0.232859 0.108950
vt 0.747925 0.673225
vt 0.746271 0.998830
vt 0.614573 0.673144
vt 0.593439 0.581887
vt 0.736323 0.230172
vt 0.723343 0.368088
vt 0.612253 0.350737
vt 0.556796 0.219368
vt 0.966292 0.114396
vt 0.923643 0.360306
vt 0.943997 0.001170
vt 0.796021 0.455239
vt 0.889915 0.478692
vt 0.811245 0.617452
vt 0.753152 0.584610
vt 0.494178 0.851841
vt 0.453367 0.854675
vt 0.498093 0.722596
vt 0.543380 0.703377
vt 0.823144 0.743304
vt 0.883029 0.755568
vt 0.837307 0.898465
vt 0.753152 0.863901
vt 0.701807 0.453232
vt 0.556796 0.435538
vt 0.163016 0.786498
vt 0.163447 0.692387
vt 0.264186 0.697334
vt 0.259266 0.728861
vt 0.101799 0.680905
vt 0.228245 0.652541
vt 0.104677 0.630624
vt 0.214595 0.634918
vt 0.470293 0.701037
vt 0.468694 0.639239
vt 0.552332 0.605746
vt 0.554463 0.700277
vt 0.467854 0.582845
vt 0.539044 0.551586
vt 0.467197 0.538812
vt 0.520265 0.504911
vt 0.451034 0.854987
vt 0.363822 0.902172
vt 0.372355 0.734578
vt 0.451034 0.703377
vt 0.310074 0.918792
vt 0.329861 0.764104
vt 0.266519 0.837488
vt 0.293602 0.776747
vt 0.328854 0.488984
vt 0.331735 0.440876
vt 0.357105 0.448609
vt 0.360663 0.537852
vt 0.901708 0.609456
vt 0.924837 0.458697
vt 0.975784 0.669504
vt 0.883029 0.961355
vt 0.799683 0.937315
vt 0.415799 0.971982
vt 0.361787 0.971361
vt 0.889915 0.655586
vt 0.835765 0.740965
vt 0.001167 0.668782
vt 0.017608 0.607127
vt 0.015336 0.715919
vt 0.019938 0.771616
vt 0.025052 0.866149
vt 0.369841 0.158602
vt 0.360146 0.074367
vt 0.414508 0.001170
vt 0.899375 0.239972
vt 0.897134 0.324358
vt 0.530542 0.232449
vt 0.538159 0.341933
vt 0.899375 0.035462
vt 0.748914 0.001170
vt 0.349384 0.575291
vt 0.319266 0.621872
vt 0.266519 0.701037
vt 0.750819 0.370428
vt 0.750819 0.893687
vt 0.200044 0.552347
vt 0.247213 0.597204
vt 0.543380 0.950982
vt 0.497314 0.938851
vt 0.863647 0.370428
vt 0.864698 0.389754
vt 0.216422 0.103085
vt 0.264186 0.001170
vt 0.557643 0.069571
vt 0.208826 0.331719
vn -0.7209 0.5479 -0.4244
vn -0.3522 0.7030 -0.6178
vn 0.9419 -0.0159 0.3356
vn -0.1053 -0.6730 0.7321
vn 0.0019 -1.0000 -0.0002
vn 0.0043 -1.0000 -0.0009
vn 0.0036 -1.0000 -0.0039
vn 0.0010 -1.0000 -0.0019
vn -0.9534 0.1665 0.2517
vn -0.1447 0.7739 0.6165
vn -0.0473 -0.3400 0.9392
vn -0.3770 0.3227 0.8682
vn -0.2861 -0.5394 0.7919
vn 0.8359 0.5172 0.1838
vn 0.9807 0.1746 0.0875
vn 0.9756 0.0593 0.2114
vn 0.9481 -0.0307 0.3165
vn -0.1239 0.5505 -0.8256
vn 0.0677 0.2185 -0.9735
vn 0.3556 0.1653 -0.9199
vn -0.2552 0.7914 -0.5555
vn -0.7416 0.6639 -0.0959
vn -0.9341 0.2861 -0.2137
vn -0.8916 0.2156 -0.3983
vn -0.5675 0.5661 -0.5979
vn -0.9946 0.0403 0.0952
vn -0.5598 0.6446 0.5207
vn -0.9129 -0.0076 0.4080
vn -0.7171 0.5855 0.3780
vn 0.8110 0.4680 -0.3511
vn 0.9423 0.1989 -0.2691
vn 0.9857 0.1352 -0.1005
vn 0.9228 0.3458 -0.1701
vn -0.0541 0.8366 -0.5451
vn 0.0024 -1.0000 0.0018
vn 0.0052 -1.0000 0.0027
vn 0.5750 0.6041 -0.5518
vn -0.9962 0.0407 0.0776
vn -0.0006 -1.0000 0.0009
vn -0.0007 -1.0000 0.0002
vn 0.0826 0.8043 -0.5885
vn -0.1792 0.8025 -0.5691
vn -0.3084 0.1948 -0.9311
vn -0.0790 0.3087 -0.9479
vn 0.0023 0.5198 -0.8543
vn -0.6871 -0.4476 0.5723
vn 0.4934 0.2755 0.8250
vn -0.0027 -0.2469 0.9690
vn 0.3146 0.4322 0.8451
vn 0.7027 0.6641 -0.2554
vn -0.0007 -1.0000 -0.0006
vn 0.9788 0.1292 0.1590
vn -0.0377 0.7309 -0.6814
usemtl Material.002
s 1
f 1/1/1 2/2/1 3/3/1 4/4/1
f 5/5/2 6/6/2 7/7/2 8/8/2
f 9/9/3 10/10/3 11/11/3 12/12/3
f 13/13/4 14/14/4 15/15/4 16/16/4
f 17/17/5 18/18/6 19/19/7 20/20/8
f 21/21/9 2/2/9 15/22/9 14/23/9
f 20/24/10 22/25/10 23/26/10 24/27/10
f 22/28/11 25/29/11 26/30/11 23/31/11
f 25/32/12 27/33/12 28/34/12 26/35/12
f 27/36/13 13/13/13 16/16/13 28/37/13
f 18/38/14 29/39/14 30/40/14 19/41/14
f 29/39/15 31/42/15 32/43/15 30/40/15
f 31/42/16 33/44/16 34/45/16 32/43/16
f 33/44/17 9/9/17 12/12/17 34/45/17
f 35/46/18 36/47/18 37/48/18 38/49/18
f 36/47/19 39/50/19 40/51/19 37/48/19
f 39/50/20 41/52/20 42/53/20 40/51/20
f 41/52/21 5/5/21 8/8/21 42/53/21
f 43/54/22 44/55/22 45/56/22 46/57/22
f 44/55/23 47/58/23 48/59/23 45/56/23
f 47/58/24 49/60/24 50/61/24 48/59/24
f 49/62/25 1/63/25 4/64/25 50/65/25
f 28/66/26 16/67/26 1/1/26 49/68/26
f 26/35/27 28/34/27 49/69/27 47/70/27
f 23/71/28 26/72/28 47/58/28 44/55/28
f 24/27/29 23/26/29 44/73/29 43/74/29
f 42/75/30 8/76/30 9/9/30 33/44/30
f 40/77/31 42/75/31 33/44/31 31/42/31
f 37/78/32 40/77/32 31/42/32 29/39/32
f 38/79/33 37/78/33 29/39/33 18/38/33
f 6/6/34 3/80/34 2/81/34 21/82/34
f 35/83/35 38/84/36 18/18/6 17/17/5
f 8/8/37 7/7/37 10/85/37 9/86/37
f 16/67/38 15/22/38 2/2/38 1/1/38
f 46/87/39 35/83/35 17/17/5 43/88/40
f 7/7/41 6/6/41 21/82/41 10/85/41
f 50/65/42 4/64/42 5/5/42 41/52/42
f 48/89/43 50/65/43 41/52/43 39/50/43
f 45/90/44 48/89/44 39/50/44 36/47/44
f 46/91/45 45/90/45 36/47/45 35/46/45
f 34/92/46 12/93/46 13/13/46 27/36/46
f 32/43/47 34/45/47 27/94/47 25/95/47
f 30/96/48 32/97/48 25/29/48 22/28/48
f 19/98/49 30/99/49 22/25/49 20/24/49
f 10/10/50 21/100/50 14/101/50 11/11/50
f 43/88/40 17/17/5 20/20/8 24/102/51
f 12/12/52 11/11/52 14/101/52 13/103/52
f 4/64/53 3/80/53 6/6/53 5/5/53
