# Blender v2.79 (sub 0) OBJ File: ''
# www.blender.org
mtllib PenitentesSingle.mtl
o pCone66.002_meshId212_name
v 1.722355 -0.256283 -1.084635
v 2.449358 -0.268579 -1.093861
v 2.520446 0.187624 -0.893263
v 1.863291 0.224325 -0.969424
v 2.449358 -0.268579 -1.093861
v 2.789691 -0.244936 -0.650058
v 2.594996 0.148772 -0.584834
v 2.520446 0.187624 -0.893263
v 2.789691 -0.244936 -0.650058
v 2.439704 -0.251229 -0.219895
v 2.520446 0.231800 -0.269944
v 2.594996 0.148772 -0.584834
v 2.439704 -0.251229 -0.219895
v 1.717994 -0.263486 -0.211926
v 1.863291 0.242407 -0.353060
v 2.520446 0.231800 -0.269944
v 1.717994 -0.263486 -0.211926
v 1.372285 -0.247843 -0.650200
v 1.600936 0.195004 -0.662021
v 1.863291 0.242407 -0.353060
v 1.372285 -0.247843 -0.650200
v 1.722355 -0.256283 -1.084635
v 1.863291 0.224325 -0.969424
v 1.600936 0.195004 -0.662021
v 1.863291 0.224325 -0.969424
v 2.520446 0.187624 -0.893263
v 2.278097 0.466574 -0.802358
v 1.790973 0.507430 -0.868753
v 2.520446 0.187624 -0.893263
v 2.594996 0.148772 -0.584834
v 2.467313 0.483299 -0.592907
v 2.278097 0.466574 -0.802358
v 2.594996 0.148772 -0.584834
v 2.520446 0.231800 -0.269944
v 2.357362 0.475927 -0.444532
v 2.467313 0.483299 -0.592907
v 2.520446 0.231800 -0.269944
v 1.863291 0.242407 -0.353060
v 1.774753 0.578429 -0.448592
v 2.357362 0.475927 -0.444532
v 1.863291 0.242407 -0.353060
v 1.600936 0.195004 -0.662021
v 1.600303 0.533243 -0.664477
v 1.774753 0.578429 -0.448592
v 1.600936 0.195004 -0.662021
v 1.863291 0.224325 -0.969424
v 1.790973 0.507430 -0.868753
v 1.600303 0.533243 -0.664477
v 1.790973 0.507430 -0.868753
v 2.278097 0.466574 -0.802358
v 2.198168 1.137555 -0.848473
v 1.981143 1.136309 -0.848103
v 2.278097 0.466574 -0.802358
v 2.467313 0.483299 -0.592907
v 2.308043 1.142258 -0.726902
v 2.198168 1.137555 -0.848473
v 2.467313 0.483299 -0.592907
v 2.357362 0.475927 -0.444532
v 2.198589 1.140809 -0.603965
v 2.308043 1.142258 -0.726902
v 2.357362 0.475927 -0.444532
v 1.774753 0.578429 -0.448592
v 1.980124 1.143068 -0.603919
v 2.198589 1.140809 -0.603965
v 1.774753 0.578429 -0.448592
v 1.600303 0.533243 -0.664477
v 1.872379 1.137454 -0.726238
v 1.980124 1.143068 -0.603919
v 1.600303 0.533243 -0.664477
v 1.790973 0.507430 -0.868753
v 1.981143 1.136309 -0.848103
v 1.872379 1.137454 -0.726238
v 1.981143 1.136309 -0.848103
v 2.198168 1.137555 -0.848473
v 2.168111 2.000324 -0.781160
v 2.057594 2.000324 -0.781160
v 2.198168 1.137555 -0.848473
v 2.308043 1.142258 -0.726902
v 2.223372 2.000324 -0.718974
v 2.168111 2.000324 -0.781160
v 2.308043 1.142258 -0.726902
v 2.198589 1.140809 -0.603965
v 2.168111 2.000324 -0.656789
v 2.223372 2.000324 -0.718974
v 2.198589 1.140809 -0.603965
v 1.980124 1.143068 -0.603919
v 2.057594 2.000324 -0.656789
v 2.168111 2.000324 -0.656789
v 1.980124 1.143068 -0.603919
v 1.872379 1.137454 -0.726238
v 2.002335 2.000324 -0.718974
v 2.057594 2.000324 -0.656789
v 1.872379 1.137454 -0.726238
v 1.981143 1.136309 -0.848103
v 2.057594 2.000324 -0.781160
v 2.002335 2.000324 -0.718974
v 1.722355 -0.256283 -1.084635
v 1.372285 -0.247843 -0.650200
v 1.717994 -0.263486 -0.211926
v 2.439704 -0.251229 -0.219895
v 2.789691 -0.244936 -0.650058
v 2.449358 -0.268579 -1.093861
v 2.057594 2.000324 -0.781160
v 2.168111 2.000324 -0.781160
v 2.132310 2.622413 -0.723354
v 2.168111 2.000324 -0.781160
v 2.223372 2.000324 -0.718974
v 2.132310 2.622413 -0.723354
v 2.223372 2.000324 -0.718974
v 2.168111 2.000324 -0.656789
v 2.132310 2.622413 -0.723354
v 2.168111 2.000324 -0.656789
v 2.057594 2.000324 -0.656789
v 2.132310 2.622413 -0.723354
v 2.057594 2.000324 -0.656789
v 2.002335 2.000324 -0.718974
v 2.132310 2.622413 -0.723354
v 2.002335 2.000324 -0.718974
v 2.057594 2.000324 -0.781160
v 2.132310 2.622413 -0.723354
v 1.735156 -3.153990 -1.062364
v 1.385086 -3.145549 -0.627929
v 1.730795 -3.161191 -0.189655
v 2.452505 -3.148935 -0.197624
v 2.802492 -3.142642 -0.627787
v 2.462159 -3.166284 -1.071590
vt 0.275048 0.707033
vt 0.376996 0.619161
vt 0.233817 0.643948
vt 0.406224 0.681344
vt 0.406224 0.681344
vt 0.491536 0.650777
vt 0.376996 0.619161
vt 0.465089 0.708553
vt 0.070174 0.966312
vt 0.023409 0.878165
vt 0.017360 1.000000
vt 0.072488 0.905397
vt 0.072488 0.905397
vt 0.086012 0.742375
vt 0.023409 0.878165
vt 0.137040 0.803155
vt 0.137040 0.803155
vt 0.182496 0.724831
vt 0.086012 0.742375
vt 0.207360 0.756360
vt 0.207360 0.756360
vt 0.233817 0.643948
vt 0.182496 0.724831
vt 0.275048 0.707033
vt 0.269540 0.753487
vt 0.406224 0.681344
vt 0.275048 0.707033
vt 0.370874 0.733710
vt 0.370874 0.733710
vt 0.465089 0.708553
vt 0.406224 0.681344
vt 0.432791 0.742875
vt 0.119621 0.949064
vt 0.072488 0.905397
vt 0.070174 0.966312
vt 0.122900 0.909606
vt 0.122900 0.909606
vt 0.137040 0.803155
vt 0.072488 0.905397
vt 0.186479 0.814079
vt 0.186479 0.814079
vt 0.207360 0.756360
vt 0.137040 0.803155
vt 0.223996 0.779693
vt 0.223996 0.779693
vt 0.275048 0.707033
vt 0.207360 0.756360
vt 0.269540 0.753487
vt 0.307682 0.826872
vt 0.370874 0.733710
vt 0.269540 0.753487
vt 0.354506 0.817522
vt 0.354506 0.817522
vt 0.432791 0.742875
vt 0.370874 0.733710
vt 0.388863 0.814560
vt 0.209787 0.952614
vt 0.122900 0.909606
vt 0.119621 0.949064
vt 0.219754 0.917792
vt 0.219754 0.917792
vt 0.186479 0.814079
vt 0.122900 0.909606
vt 0.243301 0.872894
vt 0.243301 0.872894
vt 0.223996 0.779693
vt 0.186479 0.814079
vt 0.272058 0.843080
vt 0.272058 0.843080
vt 0.269540 0.753487
vt 0.223996 0.779693
vt 0.307682 0.826872
vt 0.347125 0.919095
vt 0.354506 0.817522
vt 0.307682 0.826872
vt 0.369991 0.914253
vt 0.369991 0.914253
vt 0.388863 0.814560
vt 0.354506 0.817522
vt 0.387594 0.912984
vt 0.302990 0.975765
vt 0.219754 0.917792
vt 0.209787 0.952614
vt 0.309029 0.959386
vt 0.309029 0.959386
vt 0.243301 0.872894
vt 0.219754 0.917792
vt 0.319962 0.939029
vt 0.319962 0.939029
vt 0.272058 0.843080
vt 0.243301 0.872894
vt 0.331064 0.925894
vt 0.331064 0.925894
vt 0.307682 0.826872
vt 0.272058 0.843080
vt 0.347125 0.919095
vt 0.150981 0.512963
vt 0.233817 0.643948
vt 0.182496 0.724831
vt 0.086012 0.742375
vt 0.000000 0.616422
vt 0.033340 0.504739
vt 0.347125 0.919095
vt 0.376908 0.986688
vt 0.369991 0.914253
vt 0.369991 0.914253
vt 0.376908 0.986688
vt 0.387594 0.912984
vt 0.302990 0.975765
vt 0.376908 0.986688
vt 0.309029 0.959386
vt 0.309029 0.959386
vt 0.376908 0.986688
vt 0.319962 0.939029
vt 0.319962 0.939029
vt 0.376908 0.986688
vt 0.331064 0.925894
vt 0.331064 0.925894
vt 0.376908 0.986688
vt 0.347125 0.919095
vt 0.150981 0.512963
vt 0.182496 0.724831
vt 0.233817 0.643948
vt 0.086012 0.742375
vt 0.000000 0.616422
vt 0.033340 0.504739
vn -0.0084 0.2354 -0.9719
vn 0.1274 0.3825 -0.9151
vn 0.7814 0.1451 -0.6069
vn 0.8753 0.4584 -0.1538
vn 0.7455 0.2675 0.6105
vn 0.9561 -0.1327 0.2613
vn 0.0093 0.1015 0.9948
vn -0.1151 0.2975 0.9478
vn -0.7228 0.3704 0.5834
vn -0.7301 0.3919 0.5598
vn -0.7237 0.3579 -0.5901
vn -0.7277 0.3542 -0.5873
vn 0.1272 0.3610 -0.9238
vn 0.1572 0.4268 -0.8906
vn 0.7363 0.6702 -0.0935
vn 0.7075 0.2541 -0.6594
vn 0.9259 0.3564 0.1252
vn 0.5601 0.6958 0.4496
vn -0.0975 0.5350 0.8392
vn 0.0432 0.2837 0.9579
vn -0.7609 -0.0161 0.6486
vn -0.7781 0.0031 0.6281
vn -0.7603 -0.0061 -0.6495
vn -0.7261 0.0581 -0.6851
vn 0.1344 -0.0081 -0.9909
vn -0.0013 -0.0687 -0.9976
vn 0.7397 0.0420 -0.6716
vn 0.7404 0.0426 -0.6708
vn 0.7590 0.3009 0.5774
vn 0.7057 0.3201 0.6321
vn 0.0357 0.2411 0.9699
vn 0.0029 0.2642 0.9645
vn -0.7483 0.4146 0.5179
vn -0.7032 0.3782 0.6021
vn -0.6936 0.2430 -0.6781
vn -0.7232 0.2399 -0.6477
vn -0.0021 0.0774 -0.9970
vn 0.0000 0.0778 -0.9970
vn 0.7381 0.0780 -0.6701
vn 0.7451 0.0796 -0.6621
vn 0.7448 0.0674 0.6639
vn 0.7458 0.0672 0.6628
vn 0.0008 0.0614 0.9981
vn 0.0000 0.0616 0.9981
vn -0.7485 0.1080 0.6543
vn -0.7433 0.1064 0.6605
vn -0.7404 0.1171 -0.6619
vn -0.7424 0.1168 -0.6597
vn 0.0168 0.9998 -0.0059
vn 0.0256 0.9996 0.0155
vn -0.0172 0.9997 -0.0200
vn -0.0429 0.9989 -0.0203
vn 0.0000 0.0925 -0.9957
vn 0.7434 0.1042 -0.6606
vn 0.7427 0.1134 0.6600
vn 0.0000 0.1064 0.9943
vn -0.7380 0.1588 0.6558
vn -0.7391 0.1498 -0.6568
vn -0.0168 -0.9998 0.0059
vn -0.0256 -0.9996 -0.0155
vn 0.0172 -0.9997 0.0200
vn 0.0429 -0.9989 0.0203
vn 0.7756 0.0083 0.6312
vn -0.7787 -0.0083 -0.6273
vn -0.7851 0.0013 0.6193
vn -0.0128 -0.0077 -0.9999
vn 0.7936 -0.0012 -0.6085
vn 0.0109 0.0077 0.9999
usemtl Spikes1
s off
f 4/1/1 2/2/1 1/3/1
f 2/2/2 4/1/2 3/4/2
f 8/5/3 6/6/3 5/7/3
f 6/6/4 8/5/4 7/8/4
f 12/9/5 10/10/5 9/11/5
f 10/10/6 12/9/6 11/12/6
f 16/13/7 14/14/7 13/15/7
f 14/14/8 16/13/8 15/16/8
f 20/17/9 18/18/9 17/19/9
f 18/18/10 20/17/10 19/20/10
f 24/21/11 22/22/11 21/23/11
f 22/22/12 24/21/12 23/24/12
f 28/25/13 26/26/13 25/27/13
f 26/26/14 28/25/14 27/28/14
f 32/29/15 30/30/15 29/31/15
f 30/30/16 32/29/16 31/32/16
f 36/33/17 34/34/17 33/35/17
f 34/34/18 36/33/18 35/36/18
f 40/37/19 38/38/19 37/39/19
f 38/38/20 40/37/20 39/40/20
f 44/41/21 42/42/21 41/43/21
f 42/42/22 44/41/22 43/44/22
f 48/45/23 46/46/23 45/47/23
f 46/46/24 48/45/24 47/48/24
f 52/49/25 50/50/25 49/51/25
f 50/50/26 52/49/26 51/52/26
f 56/53/27 54/54/27 53/55/27
f 54/54/28 56/53/28 55/56/28
f 60/57/29 58/58/29 57/59/29
f 58/58/30 60/57/30 59/60/30
f 64/61/31 62/62/31 61/63/31
f 62/62/32 64/61/32 63/64/32
f 68/65/33 66/66/33 65/67/33
f 66/66/34 68/65/34 67/68/34
f 72/69/35 70/70/35 69/71/35
f 70/70/36 72/69/36 71/72/36
f 76/73/37 74/74/37 73/75/37
f 74/74/38 76/73/38 75/76/38
f 80/77/39 78/78/39 77/79/39
f 78/78/40 80/77/40 79/80/40
f 84/81/41 82/82/41 81/83/41
f 82/82/42 84/81/42 83/84/42
f 88/85/43 86/86/43 85/87/43
f 86/86/44 88/85/44 87/88/44
f 92/89/45 90/90/45 89/91/45
f 90/90/46 92/89/46 91/92/46
f 96/93/47 94/94/47 93/95/47
f 94/94/48 96/93/48 95/96/48
f 102/97/49 97/98/49 98/99/49
f 102/97/50 98/99/50 99/100/50
f 102/97/51 99/100/51 100/101/51
f 100/101/52 101/102/52 102/97/52
f 103/103/53 105/104/53 104/105/53
f 106/106/54 108/107/54 107/108/54
f 109/109/55 111/110/55 110/111/55
f 112/112/56 114/113/56 113/114/56
f 115/115/57 117/116/57 116/117/57
f 118/118/58 120/119/58 119/120/58
f 126/121/59 122/122/59 121/123/59
f 126/121/60 123/124/60 122/122/60
f 126/121/61 124/125/61 123/124/61
f 124/125/62 126/121/62 125/126/62
f 100/101/63 124/125/63 125/126/63 101/102/63
f 97/98/64 121/123/64 122/122/64 98/99/64
f 98/99/65 122/122/65 123/124/65 99/100/65
f 102/97/66 126/121/66 121/123/66 97/98/66
f 101/102/67 125/126/67 126/121/67 102/97/67
f 99/100/68 123/124/68 124/125/68 100/101/68
